name Walk8.mot
datacolumns 19
datarows 22
range 3.38700000 3.40800000
endheader

                time	   L_ground_force_vx	   L_ground_force_vy	   L_ground_force_vz	   L_ground_force_px	   L_ground_force_py	   L_ground_force_pz	   R_ground_force_vx	   R_ground_force_vy	   R_ground_force_vz	   R_ground_force_px	   R_ground_force_py	   R_ground_force_pz	   L_ground_torque_x	   L_ground_torque_y	   L_ground_torque_z	   R_ground_torque_x	   R_ground_torque_y	   R_ground_torque_z	
          3.38700000	         20.51997250	        682.15673311	         33.06948316	         -0.25505868	          0.00000000	         -0.07529533	          0.00485256	          0.03671001	          0.00692484	          0.00006399	          0.00000000	          0.00001321	          0.00000000	          1.57426927	          0.00000000	          0.00000000	         -0.00200180	          0.00000000	
          3.38800000	         20.79353599	        683.01564731	         33.12336887	         -0.25471499	          0.00000000	         -0.07530938	          0.00486971	          0.04141178	          0.00759246	          0.00006942	          0.00000000	          0.00001429	          0.00000000	          1.57934096	          0.00000000	          0.00000000	         -0.00211706	          0.00000000	
          3.38900000	         21.06650547	        683.87821429	         33.17689624	         -0.25437000	          0.00000000	         -0.07532349	          0.00486834	          0.04637944	          0.00829076	          0.00007506	          0.00000000	          0.00001541	          0.00000000	          1.58447940	          0.00000000	          0.00000000	         -0.00223428	          0.00000000	
          3.39000000	         21.33887408	        684.74437639	         33.22999704	         -0.25402370	          0.00000000	         -0.07533766	          0.00484674	          0.05161717	          0.00901971	          0.00008092	          0.00000000	          0.00001656	          0.00000000	          1.58968658	          0.00000000	          0.00000000	         -0.00235318	          0.00000000	
          3.39100000	         21.61063599	        685.61406380	         33.28260524	         -0.25367609	          0.00000000	         -0.07535191	          0.00480312	          0.05712844	          0.00977915	          0.00008700	          0.00000000	          0.00001776	          0.00000000	          1.59496400	          0.00000000	          0.00000000	         -0.00247340	          0.00000000	
          3.39200000	         21.88178673	        686.48719462	         33.33465670	         -0.25332717	          0.00000000	         -0.07536625	          0.00473560	          0.06291592	          0.01056877	          0.00009328	          0.00000000	          0.00001899	          0.00000000	          1.60031257	          0.00000000	          0.00000000	         -0.00259458	          0.00000000	
          3.39300000	         22.15232328	        687.36367570	         33.38608926	         -0.25297694	          0.00000000	         -0.07538068	          0.00464226	          0.06898136	          0.01138812	          0.00009975	          0.00000000	          0.00002026	          0.00000000	          1.60573273	          0.00000000	          0.00000000	         -0.00271630	          0.00000000	
          3.39400000	         22.42224403	        688.24340408	         33.43684297	         -0.25262541	          0.00000000	         -0.07539521	          0.00452106	          0.07532555	          0.01223657	          0.00010642	          0.00000000	          0.00002157	          0.00000000	          1.61122472	          0.00000000	          0.00000000	         -0.00283812	          0.00000000	
          3.39500000	         22.69154862	        689.12626878	         33.48686061	         -0.25227256	          0.00000000	         -0.07540983	          0.00436994	          0.08194818	          0.01311333	          0.00011326	          0.00000000	          0.00002290	          0.00000000	          1.61678882	          0.00000000	          0.00000000	         -0.00295954	          0.00000000	
          3.39600000	         22.96023790	        690.01215293	         33.53608824	         -0.25191839	          0.00000000	         -0.07542455	          0.00418672	          0.08884778	          0.01401741	          0.00012028	          0.00000000	          0.00002427	          0.00000000	          1.62242556	          0.00000000	          0.00000000	         -0.00308001	          0.00000000	
          3.39700000	         23.22831397	        690.90093584	         33.58447566	         -0.25156291	          0.00000000	         -0.07543937	          0.00396919	          0.09602159	          0.01494761	          0.00012745	          0.00000000	          0.00002566	          0.00000000	          1.62813577	          0.00000000	          0.00000000	         -0.00319896	          0.00000000	
          3.39800000	         23.49578046	        691.79249481	         33.63197688	         -0.25120610	          0.00000000	         -0.07545429	          0.00371505	          0.10346547	          0.01590251	          0.00013475	          0.00000000	          0.00002708	          0.00000000	          1.63392055	          0.00000000	          0.00000000	         -0.00331576	          0.00000000	
          3.39900000	         23.76264293	        692.68670634	         33.67855044	         -0.25084798	          0.00000000	         -0.07546932	          0.00342195	          0.11117377	          0.01688048	          0.00014219	          0.00000000	          0.00002851	          0.00000000	          1.63978124	          0.00000000	          0.00000000	         -0.00342971	          0.00000000	
          3.40000000	         24.02890944	        693.58344694	         33.72415977	         -0.25048853	          0.00000000	         -0.07548447	          0.00308749	          0.11913922	          0.01787960	          0.00014972	          0.00000000	          0.00002997	          0.00000000	          1.64571933	          0.00000000	          0.00000000	         -0.00354009	          0.00000000	
          3.40100000	         24.29459125	        694.48259355	         33.76877356	         -0.25012778	          0.00000000	         -0.07549974	          0.00270919	          0.12735283	          0.01889773	          0.00015734	          0.00000000	          0.00003143	          0.00000000	          1.65173657	          0.00000000	          0.00000000	         -0.00364610	          0.00000000	
          3.40200000	         24.55970340	        695.38402382	         33.81236618	         -0.24976572	          0.00000000	         -0.07551514	          0.00228455	          0.13580374	          0.01993242	          0.00016501	          0.00000000	          0.00003290	          0.00000000	          1.65783498	          0.00000000	          0.00000000	         -0.00374691	          0.00000000	
          3.40300000	         24.82426515	        696.28761652	         33.85491795	         -0.24940237	          0.00000000	         -0.07553067	          0.00181102	          0.14447909	          0.02098095	          0.00017272	          0.00000000	          0.00003437	          0.00000000	          1.66401693	          0.00000000	          0.00000000	         -0.00384161	          0.00000000	
          3.40400000	         25.08830026	        697.19325227	         33.89641530	         -0.24903772	          0.00000000	         -0.07554632	          0.00128600	          0.15336391	          0.02204025	          0.00018043	          0.00000000	          0.00003583	          0.00000000	          1.67028520	          0.00000000	          0.00000000	         -0.00392925	          0.00000000	
          3.40500000	         25.35183695	        698.10081496	         33.93685066	         -0.24867179	          0.00000000	         -0.07556210	          0.00070689	          0.16244097	          0.02310697	          0.00018811	          0.00000000	          0.00003729	          0.00000000	          1.67664306	          0.00000000	          0.00000000	         -0.00400880	          0.00000000	
          3.40600000	         25.61490779	        699.01019363	         33.97622202	         -0.24830457	          0.00000000	         -0.07557800	          0.00007104	          0.17169066	          0.02417738	          0.00019572	          0.00000000	          0.00003872	          0.00000000	          1.68309416	          0.00000000	          0.00000000	         -0.00407919	          0.00000000	
          3.40700000	         25.87754937	        699.92128450	         34.01453213	         -0.24793608	          0.00000000	         -0.07559402	         -0.00062419	          0.18109080	          0.02524742	          0.00020324	          0.00000000	          0.00004013	          0.00000000	          1.68964234	          0.00000000	          0.00000000	         -0.00413927	          0.00000000	
          3.40800000	         26.13980196	        700.83399270	         34.05178751	         -0.24756631	          0.00000000	         -0.07561017	         -0.00138144	          0.19061656	          0.02631261	          0.00021062	          0.00000000	          0.00004150	          0.00000000	          1.69629138	          0.00000000	          0.00000000	         -0.00418784	          0.00000000	
